<svg width="100" height="100" viewBox="0 0 100 100" fill="#535353" xmlns="http://www.w3.org/2000/svg" aria-hidden="true">
  <rect x="52" y="14" width="4" height="4" />
  <rect x="56" y="14" width="4" height="4" />
  <rect x="60" y="14" width="4" height="4" />
  <rect x="64" y="14" width="4" height="4" />
  <rect x="68" y="14" width="4" height="4" />
  <rect x="72" y="14" width="4" height="4" />
  <rect x="48" y="18" width="4" height="4" />
  <rect x="52" y="18" width="4" height="4" />
  <rect x="56" y="18" width="4" height="4" />
  <rect x="60" y="18" width="4" height="4" />
  <rect x="64" y="18" width="4" height="4" />
  <rect x="68" y="18" width="4" height="4" />
  <rect x="72" y="18" width="4" height="4" />
  <rect x="76" y="18" width="4" height="4" />
  <rect x="48" y="22" width="4" height="4" />
  <rect x="52" y="22" width="4" height="4" />
  <rect x="56" y="22" width="4" height="4" />
  <rect x="60" y="22" width="4" height="4" />
  <rect x="68" y="22" width="4" height="4" />
  <rect x="72" y="22" width="4" height="4" />
  <rect x="76" y="22" width="4" height="4" />
  <rect x="48" y="26" width="4" height="4" />
  <rect x="52" y="26" width="4" height="4" />
  <rect x="56" y="26" width="4" height="4" />
  <rect x="60" y="26" width="4" height="4" />
  <rect x="64" y="26" width="4" height="4" />
  <rect x="68" y="26" width="4" height="4" />
  <rect x="72" y="26" width="4" height="4" />
  <rect x="76" y="26" width="4" height="4" />
  <rect x="48" y="30" width="4" height="4" />
  <rect x="52" y="30" width="4" height="4" />
  <rect x="56" y="30" width="4" height="4" />
  <rect x="60" y="30" width="4" height="4" />
  <rect x="64" y="30" width="4" height="4" />
  <rect x="68" y="30" width="4" height="4" />
  <rect x="72" y="30" width="4" height="4" />
  <rect x="76" y="30" width="4" height="4" />
  <rect x="48" y="34" width="4" height="4" />
  <rect x="52" y="34" width="4" height="4" />
  <rect x="56" y="34" width="4" height="4" />
  <rect x="60" y="34" width="4" height="4" />
  <rect x="64" y="34" width="4" height="4" />
  <rect x="68" y="34" width="4" height="4" />
  <rect x="72" y="34" width="4" height="4" />
  <rect x="76" y="34" width="4" height="4" />
  <rect x="44" y="38" width="4" height="4" />
  <rect x="48" y="38" width="4" height="4" />
  <rect x="52" y="38" width="4" height="4" />
  <rect x="56" y="38" width="4" height="4" />
  <rect x="60" y="38" width="4" height="4" />
  <rect x="64" y="38" width="4" height="4" />
  <rect x="68" y="38" width="4" height="4" />
  <rect x="36" y="42" width="4" height="4" />
  <rect x="40" y="42" width="4" height="4" />
  <rect x="44" y="42" width="4" height="4" />
  <rect x="48" y="42" width="4" height="4" />
  <rect x="52" y="42" width="4" height="4" />
  <rect x="56" y="42" width="4" height="4" />
  <rect x="60" y="42" width="4" height="4" />
  <rect x="64" y="42" width="4" height="4" />
  <rect x="68" y="42" width="4" height="4" />
  <rect x="32" y="46" width="4" height="4" />
  <rect x="36" y="46" width="4" height="4" />
  <rect x="40" y="46" width="4" height="4" />
  <rect x="44" y="46" width="4" height="4" />
  <rect x="48" y="46" width="4" height="4" />
  <rect x="52" y="46" width="4" height="4" />
  <rect x="56" y="46" width="4" height="4" />
  <rect x="60" y="46" width="4" height="4" />
  <rect x="64" y="46" width="4" height="4" />
  <rect x="68" y="46" width="4" height="4" />
  <rect x="16" y="50" width="4" height="4" />
  <rect x="20" y="50" width="4" height="4" />
  <rect x="28" y="50" width="4" height="4" />
  <rect x="32" y="50" width="4" height="4" />
  <rect x="36" y="50" width="4" height="4" />
  <rect x="40" y="50" width="4" height="4" />
  <rect x="44" y="50" width="4" height="4" />
  <rect x="48" y="50" width="4" height="4" />
  <rect x="52" y="50" width="4" height="4" />
  <rect x="56" y="50" width="4" height="4" />
  <rect x="60" y="50" width="4" height="4" />
  <rect x="64" y="50" width="4" height="4" />
  <rect x="68" y="50" width="4" height="4" />
  <rect x="16" y="54" width="4" height="4" />
  <rect x="20" y="54" width="4" height="4" />
  <rect x="24" y="54" width="4" height="4" />
  <rect x="28" y="54" width="4" height="4" />
  <rect x="32" y="54" width="4" height="4" />
  <rect x="36" y="54" width="4" height="4" />
  <rect x="40" y="54" width="4" height="4" />
  <rect x="44" y="54" width="4" height="4" />
  <rect x="48" y="54" width="4" height="4" />
  <rect x="52" y="54" width="4" height="4" />
  <rect x="56" y="54" width="4" height="4" />
  <rect x="60" y="54" width="4" height="4" />
  <rect x="64" y="54" width="4" height="4" />
  <rect x="24" y="58" width="4" height="4" />
  <rect x="28" y="58" width="4" height="4" />
  <rect x="32" y="58" width="4" height="4" />
  <rect x="36" y="58" width="4" height="4" />
  <rect x="40" y="58" width="4" height="4" />
  <rect x="44" y="58" width="4" height="4" />
  <rect x="48" y="58" width="4" height="4" />
  <rect x="52" y="58" width="4" height="4" />
  <rect x="56" y="58" width="4" height="4" />
  <rect x="60" y="58" width="4" height="4" />
  <rect x="64" y="58" width="4" height="4" />
  <rect x="24" y="62" width="4" height="4" />
  <rect x="28" y="62" width="4" height="4" />
  <rect x="32" y="62" width="4" height="4" />
  <rect x="36" y="62" width="4" height="4" />
  <rect x="40" y="62" width="4" height="4" />
  <rect x="44" y="62" width="4" height="4" />
  <rect x="48" y="62" width="4" height="4" />
  <rect x="52" y="62" width="4" height="4" />
  <rect x="56" y="62" width="4" height="4" />
  <rect x="60" y="62" width="4" height="4" />
  <rect x="24" y="66" width="4" height="4" />
  <rect x="28" y="66" width="4" height="4" />
  <rect x="32" y="66" width="4" height="4" />
  <rect x="44" y="66" width="4" height="4" />
  <rect x="48" y="66" width="4" height="4" />
  <rect x="52" y="66" width="4" height="4" />
  <rect x="56" y="66" width="4" height="4" />
  <rect x="60" y="66" width="4" height="4" />
  <rect x="24" y="70" width="4" height="4" />
  <rect x="28" y="70" width="4" height="4" />
  <rect x="32" y="70" width="4" height="4" />
  <rect x="44" y="70" width="4" height="4" />
  <rect x="48" y="70" width="4" height="4" />
  <rect x="52" y="70" width="4" height="4" />
  <rect x="56" y="70" width="4" height="4" />
  <rect x="24" y="74" width="4" height="4" />
  <rect x="28" y="74" width="4" height="4" />
  <rect x="44" y="74" width="4" height="4" />
  <rect x="48" y="74" width="4" height="4" />
  <rect x="52" y="74" width="4" height="4" />
  <rect x="24" y="78" width="4" height="4" />
  <rect x="28" y="78" width="4" height="4" />
  <rect x="44" y="78" width="4" height="4" />
  <rect x="48" y="78" width="4" height="4" />
  <rect x="52" y="78" width="4" height="4" />
  <rect x="20" y="82" width="4" height="4" />
  <rect x="24" y="82" width="4" height="4" />
  <rect x="28" y="82" width="4" height="4" />
  <rect x="44" y="82" width="4" height="4" />
  <rect x="48" y="82" width="4" height="4" />
  <rect x="52" y="82" width="4" height="4" />
  <rect x="56" y="82" width="4" height="4" />
</svg>
